<?xml version="1.0" standalone="no"?><svg xmlns="http://www.w3.org/2000/svg" viewBox="0 0 1440 320"><path fill="#023e8a" fill-opacity="1" d="M0,224L30,229.3C60,235,120,245,180,213.3C240,181,300,107,360,64C420,21,480,11,540,53.3C600,96,660,192,720,213.3C780,235,840,181,900,144C960,107,1020,85,1080,90.7C1140,96,1200,128,1260,138.7C1320,149,1380,139,1410,133.3L1440,128L1440,320L1410,320C1380,320,1320,320,1260,320C1200,320,1140,320,1080,320C1020,320,960,320,900,320C840,320,780,320,720,320C660,320,600,320,540,320C480,320,420,320,360,320C300,320,240,320,180,320C120,320,60,320,30,320L0,320Z"></path></svg>