<?xml version="1.0" standalone="no"?><svg xmlns="http://www.w3.org/2000/svg" viewBox="0 0 1440 320"><path fill="#0077b6" fill-opacity="1" d="M0,192L30,170.7C60,149,120,107,180,96C240,85,300,107,360,133.3C420,160,480,192,540,202.7C600,213,660,203,720,181.3C780,160,840,128,900,128C960,128,1020,160,1080,197.3C1140,235,1200,277,1260,266.7C1320,256,1380,192,1410,160L1440,128L1440,320L1410,320C1380,320,1320,320,1260,320C1200,320,1140,320,1080,320C1020,320,960,320,900,320C840,320,780,320,720,320C660,320,600,320,540,320C480,320,420,320,360,320C300,320,240,320,180,320C120,320,60,320,30,320L0,320Z"></path></svg>